<svg width="671" height="417" viewBox="0 0 671 417" fill="none" xmlns="http://www.w3.org/2000/svg">
<rect width="671" height="417" fill="#1E1E1E"/>
<rect width="671" height="417" fill="black"/>
<path d="M289.381 49.7307C288.833 55.2177 284.911 61.2522 283.108 66.4599C280.615 73.6612 277.966 80.9211 275.286 88.0683C269.051 104.695 265.309 122.208 258.789 138.759C252.495 154.736 247.691 171.252 241.285 187.204C232.775 208.395 226.741 231.027 216.23 251.332C210.531 262.342 203.146 274.066 192.724 281.111C180.189 289.586 164.491 290.191 151.521 282.389C134.666 272.251 131.716 251.872 137.387 234.293C140.638 224.214 147.754 216.159 156.555 210.594C166.881 204.064 178.527 198.853 190.052 194.755C202.154 190.452 214.506 185.556 226.996 182.518C236.776 180.139 245.824 174.855 254.994 170.862C270.711 164.017 285.37 154.282 299.992 145.381C312.909 137.519 325.095 128.788 337.633 120.365C350.936 111.426 365.929 102.15 376.667 90.1594C380.476 85.9059 384.129 82.8263 387.123 77.7675C391.054 71.1244 393.181 63.7974 391.15 56.0816C389.5 49.8109 386.926 51.167 382.786 55.3071C378.129 59.9637 376.259 65.927 373.027 71.4941C369.262 77.9774 366.692 87.0888 365.359 94.4192C363.228 106.141 359.596 118.549 355.601 129.736C350.952 142.753 348.75 156.444 344.797 169.623C339.087 188.653 336.657 208.414 331.514 227.516C329.695 234.272 328.613 242.045 325.628 248.389C324.406 250.985 324.31 253.906 323.382 256.599C322.461 259.269 321.139 262.055 320.71 264.847C319.766 270.98 316.761 276.656 315.133 282.622C312.065 293.873 307.4 305.391 302.625 316.003C300.22 321.348 304.217 317.76 307.195 316.312C317.953 311.083 330.101 308.249 341.466 304.734C379.948 292.832 417.534 277.93 455.588 264.731C502.005 248.632 548.244 231.891 594.494 215.318C604.017 211.906 633.088 203.434 623.151 205.327C616.938 206.51 610.691 208.541 604.64 210.323C574.915 219.076 544.889 226.673 514.837 234.216C413.705 259.599 313.057 286.65 212.629 314.686C197.401 318.937 182.183 323.239 166.895 327.271C164.022 328.029 161.163 328.849 158.259 329.479C155.037 330.178 154.401 330.018 157.407 328.24C166.766 322.702 176.889 318.075 186.606 313.253C217.775 297.785 248.976 282.404 279.894 266.435C385.094 212.099 489.271 156.313 597.476 108.05C610.042 102.445 647.296 84.8043 635.349 91.631C634.029 92.3852 632.843 93.433 631.631 94.3417" stroke="white" stroke-width="7" stroke-linecap="round"/>
</svg>
